<svg width="1440" height="900" viewBox="0 0 1440 900" fill="none" xmlns="http://www.w3.org/2000/svg">
  <!-- Background gradient -->
  <rect width="1440" height="900" fill="url(#paint0_linear)" />
  
  <!-- Subtle grid pattern -->
  <path d="M0 0h1440v900H0z" fill="url(#grid)" fill-opacity="0.05" />
  
  <!-- Decorative circles -->
  <circle cx="200" cy="150" r="80" fill="white" fill-opacity="0.03" />
  <circle cx="1200" cy="250" r="120" fill="white" fill-opacity="0.04" />
  <circle cx="400" cy="700" r="150" fill="white" fill-opacity="0.03" />
  <circle cx="1100" cy="800" r="100" fill="white" fill-opacity="0.05" />
  <circle cx="700" cy="400" r="200" fill="white" fill-opacity="0.02" />
  
  <!-- Blurred shapes -->
  <ellipse cx="100" cy="800" rx="150" ry="100" fill="#9D4EDD" fill-opacity="0.15" />
  <ellipse cx="1300" cy="100" rx="200" ry="150" fill="#FF6EC7" fill-opacity="0.15" />
  <ellipse cx="800" cy="700" rx="180" ry="120" fill="#8A2BE2" fill-opacity="0.12" />
  
  <!-- Animated floating particles -->
  <circle cx="300" cy="300" r="5" fill="white" fill-opacity="0.2">
    <animate attributeName="cy" values="300;280;300" dur="4s" repeatCount="indefinite" />
  </circle>
  <circle cx="900" cy="200" r="7" fill="white" fill-opacity="0.2">
    <animate attributeName="cy" values="200;230;200" dur="6s" repeatCount="indefinite" />
  </circle>
  <circle cx="1100" cy="500" r="6" fill="white" fill-opacity="0.2">
    <animate attributeName="cy" values="500;470;500" dur="5s" repeatCount="indefinite" />
  </circle>
  <circle cx="500" cy="600" r="8" fill="white" fill-opacity="0.2">
    <animate attributeName="cy" values="600;630;600" dur="7s" repeatCount="indefinite" />
  </circle>
  
  <!-- Definitions -->
  <defs>
    <!-- Main background gradient -->
    <linearGradient id="paint0_linear" x1="0" y1="0" x2="1440" y2="900" gradientUnits="userSpaceOnUse">
      <stop offset="0" stop-color="#8A2BE2" />
      <stop offset="0.5" stop-color="#6A0DAD" />
      <stop offset="1" stop-color="#4B0082" />
    </linearGradient>
    
    <!-- Grid pattern -->
    <pattern id="grid" x="0" y="0" width="40" height="40" patternUnits="userSpaceOnUse">
      <path d="M0 0h40v40H0z" fill="none" />
      <path d="M40 0v40M0 40h40" stroke="white" stroke-opacity="0.1" stroke-width="0.5" />
    </pattern>
  </defs>
</svg>